REM DIRINDEX 1\2,1\3,1\4,1\5
REM DIRNAME folder01,folder02,folder03,folder04,folder05
TITLE ""
FILE "P1Q_t_0040-0049.mp3" MP3
  TRACK 01 AUDIO
    TITLE "3:cjc005_1020"
    INDEX 01 00:00:00
  TRACK 02 AUDIO
    TITLE "0:"
    INDEX 01 00:00:68
  TRACK 03 AUDIO
    TITLE "4:cjc005_1021"
    INDEX 01 00:01:21
  TRACK 04 AUDIO
    TITLE "0:"
    INDEX 01 00:03:12
  TRACK 05 AUDIO
    TITLE "5:cjc005_1022"
    INDEX 01 00:03:31
  TRACK 06 AUDIO
    TITLE "0:"
    INDEX 01 00:08:03
  TRACK 07 AUDIO
    TITLE "3:cjc005_1023"
    INDEX 01 00:08:52
  TRACK 08 AUDIO
    TITLE "0:"
    INDEX 01 00:09:49
  TRACK 09 AUDIO
    TITLE "4:cjc005_1024"
    INDEX 01 00:10:02
  TRACK 10 AUDIO
    TITLE "0:"
    INDEX 01 00:11:17
  TRACK 11 AUDIO
    TITLE "5:cjc005_1025"
    INDEX 01 00:11:44
  TRACK 12 AUDIO
    TITLE "0:"
    INDEX 01 00:15:03
  TRACK 13 AUDIO
    TITLE "3:cjc005_1026"
    INDEX 01 00:15:56
  TRACK 14 AUDIO
    TITLE "0:"
    INDEX 01 00:16:48
  TRACK 15 AUDIO
    TITLE "4:cjc005_1027"
    INDEX 01 00:17:00
  TRACK 16 AUDIO
    TITLE "0:"
    INDEX 01 00:18:21
  TRACK 17 AUDIO
    TITLE "5:cjc005_1028"
    INDEX 01 00:18:46
  TRACK 18 AUDIO
    TITLE "0:"
    INDEX 01 00:21:70
  TRACK 19 AUDIO
    TITLE "3:cjc005_1029"
    INDEX 01 00:22:52
  TRACK 20 AUDIO
    TITLE "0:"
    INDEX 01 00:23:51
  TRACK 21 AUDIO
    TITLE "4:cjc005_1030"
    INDEX 01 00:24:08
  TRACK 22 AUDIO
    TITLE "0:"
    INDEX 01 00:25:15
  TRACK 23 AUDIO
    TITLE "5:cjc005_1031"
    INDEX 01 00:25:41
  TRACK 24 AUDIO
    TITLE "0:"
    INDEX 01 00:28:68
  TRACK 25 AUDIO
    TITLE "3:cjc005_1032"
    INDEX 01 00:29:58
  TRACK 26 AUDIO
    TITLE "0:"
    INDEX 01 00:30:67
  TRACK 27 AUDIO
    TITLE "4:cjc005_1033"
    INDEX 01 00:31:16
  TRACK 28 AUDIO
    TITLE "0:"
    INDEX 01 00:32:48
  TRACK 29 AUDIO
    TITLE "5:cjc005_1034"
    INDEX 01 00:32:74
  TRACK 30 AUDIO
    TITLE "0:"
    INDEX 01 00:37:18
  TRACK 31 AUDIO
    TITLE "3:cjc005_1035"
    INDEX 01 00:37:69
  TRACK 32 AUDIO
    TITLE "0:"
    INDEX 01 00:39:00
  TRACK 33 AUDIO
    TITLE "4:cjc005_1036"
    INDEX 01 00:39:27
  TRACK 34 AUDIO
    TITLE "0:"
    INDEX 01 00:40:54
  TRACK 35 AUDIO
    TITLE "5:cjc005_1037"
    INDEX 01 00:41:02
  TRACK 36 AUDIO
    TITLE "0:"
    INDEX 01 00:44:60
  TRACK 37 AUDIO
    TITLE "3:cjc005_1038"
    INDEX 01 00:45:37
  TRACK 38 AUDIO
    TITLE "0:"
    INDEX 01 00:46:64
  TRACK 39 AUDIO
    TITLE "4:cjc005_1039"
    INDEX 01 00:47:27
  TRACK 40 AUDIO
    TITLE "0:"
    INDEX 01 00:48:59
  TRACK 41 AUDIO
    TITLE "5:cjc005_1040"
    INDEX 01 00:49:12
  TRACK 42 AUDIO
    TITLE "0:"
    INDEX 01 00:52:65
  TRACK 43 AUDIO
    TITLE "3:cjc005_1041"
    INDEX 01 00:53:45
  TRACK 44 AUDIO
    TITLE "0:"
    INDEX 01 00:54:50
  TRACK 45 AUDIO
    TITLE "4:cjc005_1042"
    INDEX 01 00:55:04
  TRACK 46 AUDIO
    TITLE "0:"
    INDEX 01 00:57:03
  TRACK 47 AUDIO
    TITLE "5:cjc005_1043"
    INDEX 01 00:57:27
  TRACK 48 AUDIO
    TITLE "0:"
    INDEX 01 01:01:03
  TRACK 49 AUDIO
    TITLE "3:cjc005_1044"
    INDEX 01 01:01:58
  TRACK 50 AUDIO
    TITLE "0:"
    INDEX 01 01:03:06
  TRACK 51 AUDIO
    TITLE "4:cjc005_1045"
    INDEX 01 01:03:35
  TRACK 52 AUDIO
    TITLE "0:"
    INDEX 01 01:04:66
  TRACK 53 AUDIO
    TITLE "5:cjc005_1046"
    INDEX 01 01:05:13
  TRACK 54 AUDIO
    TITLE "0:"
    INDEX 01 01:11:03
  TRACK 55 AUDIO
    TITLE "3:cjc005_1047"
    INDEX 01 01:11:54
  TRACK 56 AUDIO
    TITLE "0:"
    INDEX 01 01:12:62
  TRACK 57 AUDIO
    TITLE "4:cjc005_1048"
    INDEX 01 01:13:14
  TRACK 58 AUDIO
    TITLE "0:"
    INDEX 01 01:14:31
  TRACK 59 AUDIO
    TITLE "5:cjc005_1049"
    INDEX 01 01:14:59
  TRACK 60 AUDIO
    TITLE "0:"
    INDEX 01 01:18:41
